<svg xmlns="http://www.w3.org/2000/svg" viewBox="0 0 64 64">
  <defs>
    <linearGradient id="grad" x1="0%" y1="0%" x2="100%" y2="100%">
      <stop offset="0%" stop-color="#0d9488"/>
      <stop offset="100%" stop-color="#0ea5e9"/>
    </linearGradient>
  </defs>
  <rect width="64" height="64" rx="18" fill="url(#grad)"/>
  <path d="M42.8 18.9c-4.1 0-7.4 3.3-7.4 7.4 0 1.3.4 2.6 1.1 3.7l5.3 8.7 5.3-8.7c.8-1.1 1.1-2.4 1.1-3.7 0-4.1-3.3-7.4-7.4-7.4z" fill="#fff"/>
  <path d="M36.8 35.7l-5.4 5.4-3.7-3.7a3.7 3.7 0 00-5.2 5.2l7.1 7.1a3.7 3.7 0 005.2 0l9-9a3.7 3.7 0 00-5.0-5.0z" fill="#fff" opacity="0.9"/>
  <path d="M32 26c-1.4 0-2.6 1.2-2.6 2.6v4.9h-4.9c-1.4 0-2.6 1.2-2.6 2.6S22.1 39 23.5 39h4.9v4.9c0 1.4 1.2 2.6 2.6 2.6s2.6-1.2 2.6-2.6V39h4.9c1.4 0 2.6-1.2 2.6-2.6s-1.2-2.6-2.6-2.6h-4.9v-4.9C34.6 27.2 33.4 26 32 26z" fill="#ffffff"/>
</svg>
